<svg xmlns="http://www.w3.org/2000/svg" width="564" height="448" viewBox="0 31.5 564 448"><path fill="#F00" d="M210.129 235.042h25.725l45.652-80.488-12.862-22.022-58.515 102.51z"/><path fill="#FCD700" d="M281.71 208.132l30.343-53.577-12.861-22.023-43.132 75.6h25.65z"/><path fill="#A3E0BB" d="M315.184 158.667l43.648 77.16-25.628-.007-30.885-55.132 12.865-22.021z"/><path fill="#FFF" d="M74.36 408.212v-81.948h-.4l-23.129 81.948H42.19l-22.996-81.948h-.399v81.948H10v-94.341h13.858l22.519 79.682h.534l22.252-79.682h14.391v94.341H74.36zm135.446-19.256c-.934 4.31-2.443 8.062-4.531 11.261-2.088 3.196-4.864 5.709-8.328 7.529-3.464 1.818-7.729 2.729-12.792 2.729s-9.306-.91-12.726-2.729c-3.42-1.82-6.175-4.333-8.262-7.529-2.089-3.199-3.576-6.951-4.464-11.261-.889-4.308-1.332-8.905-1.332-13.792v-61.293h9.327v60.094c0 3.465.244 6.887.731 10.262.488 3.377 1.376 6.375 2.666 8.994 1.286 2.62 3.064 4.73 5.33 6.328 2.265 1.602 5.217 2.399 8.861 2.399 3.552 0 6.483-.8 8.794-2.399 2.309-1.598 4.107-3.708 5.396-6.328 1.287-2.619 2.175-5.596 2.664-8.928.488-3.331.733-6.773.733-10.328v-60.094h9.327v61.293c.004 4.887-.462 9.484-1.394 13.792zm113.59 19.256l-17.056-43.707h-12.125v43.707h-9.194v-94.341h22.652c3.108 0 6.106.423 8.995 1.266a20.587 20.587 0 0 1 7.728 4.197c2.268 1.955 4.086 4.529 5.465 7.729 1.376 3.199 2.063 7.107 2.063 11.726 0 3.998-.513 7.44-1.53 10.329-1.023 2.884-2.355 5.308-3.998 7.261-1.646 1.955-3.465 3.464-5.463 4.529-2 1.067-3.979 1.733-5.933 1.997l18.389 45.309-9.993-.002zm-.531-68.956c0-3.361-.467-6.174-1.398-8.43-.934-2.256-2.178-4.047-3.73-5.375a13.42 13.42 0 0 0-5.329-2.789c-2-.531-4.064-.796-6.197-.796h-11.992v35.31h12.392c5.063 0 9.039-1.568 11.928-4.711 2.881-3.142 4.326-7.545 4.326-13.209zm119.123 68.956l-5.729-23.587H407.21l-5.996 23.587h-9.461l23.983-94.341h12.658l23.32 94.341h-9.726zm-19.853-85.946h-.533l-13.058 54.898h26.384l-12.793-54.898zm94.605 85.946v-94.341h9.326v85.678h26.918v8.663H516.74z"/></svg>