<?xml version="1.0" encoding="utf-8"?>
<!-- Generator: Adobe Illustrator 16.0.0, SVG Export Plug-In . SVG Version: 6.00 Build 0)  -->
<!DOCTYPE svg PUBLIC "-//W3C//DTD SVG 1.1//EN" "http://www.w3.org/Graphics/SVG/1.1/DTD/svg11.dtd">
<svg version="1.1" id="Layer_1" xmlns="http://www.w3.org/2000/svg" xmlns:xlink="http://www.w3.org/1999/xlink" x="0px" y="0px"
	 width="564px" height="448px" viewBox="0 31.5 564 448" enable-background="new 0 31.5 564 448" xml:space="preserve">
<path fill="#FF0000" d="M210.129,235.042h25.725l45.652-80.488l-12.862-22.022L210.129,235.042z"/>
<path fill="#FCD700" d="M281.71,208.132l30.343-53.577l-12.861-22.023l-43.132,75.6H281.71z"/>
<path fill="#A3E0BB" d="M315.184,158.667l43.648,77.16l-25.628-0.007l-30.885-55.132L315.184,158.667z"/>
<g>
	<path fill="#FFFFFF" d="M74.36,408.212v-81.948h-0.4l-23.129,81.948H42.19l-22.996-81.948h-0.399v81.948H10v-94.341h13.858
		l22.519,79.682h0.534l22.252-79.682h14.391v94.341H74.36z M209.806,388.956c-0.934,4.31-2.443,8.062-4.531,11.261
		c-2.088,3.196-4.864,5.709-8.328,7.529c-3.464,1.818-7.729,2.729-12.792,2.729s-9.306-0.91-12.726-2.729
		c-3.42-1.82-6.175-4.333-8.262-7.529c-2.089-3.199-3.576-6.951-4.464-11.261c-0.889-4.308-1.332-8.905-1.332-13.792v-61.293h9.327
		v60.094c0,3.465,0.244,6.887,0.731,10.262c0.488,3.377,1.376,6.375,2.666,8.994c1.286,2.62,3.064,4.73,5.33,6.328
		c2.265,1.602,5.217,2.399,8.861,2.399c3.552,0,6.483-0.8,8.794-2.399c2.309-1.598,4.107-3.708,5.396-6.328
		c1.287-2.619,2.175-5.596,2.664-8.928c0.488-3.331,0.733-6.773,0.733-10.328v-60.094h9.327v61.293
		C211.204,380.051,210.738,384.648,209.806,388.956z M323.396,408.212l-17.056-43.707h-12.125v43.707h-9.194v-94.341h22.652
		c3.108,0,6.106,0.423,8.995,1.266c2.849,0.826,5.484,2.258,7.728,4.197c2.268,1.955,4.086,4.529,5.465,7.729
		c1.376,3.199,2.063,7.107,2.063,11.726c0,3.998-0.513,7.44-1.53,10.329c-1.023,2.884-2.355,5.308-3.998,7.261
		c-1.646,1.955-3.465,3.464-5.463,4.529c-2,1.067-3.979,1.733-5.933,1.997l18.389,45.309L323.396,408.212L323.396,408.212z
		 M322.865,339.256c0-3.361-0.467-6.174-1.398-8.43c-0.934-2.256-2.178-4.047-3.73-5.375c-1.543-1.321-3.365-2.275-5.329-2.789
		c-2-0.531-4.064-0.796-6.197-0.796h-11.992v35.31h12.392c5.063,0,9.039-1.568,11.928-4.711
		C321.42,349.323,322.865,344.92,322.865,339.256z M441.988,408.212l-5.729-23.587H407.21l-5.996,23.587h-9.461l23.983-94.341
		h12.658l23.32,94.341H441.988z M422.135,322.266h-0.533l-13.058,54.898h26.384L422.135,322.266z M516.74,408.212v-94.341h9.326
		v85.678h26.918v8.663H516.74z"/>
</g>
</svg>
