<svg xmlns="http://www.w3.org/2000/svg" width="564" height="564" viewBox="0 0 564 564"><path fill="#CB3A2C" d="M133.164 296.768h44l78.084-137.667-22-37.666z"/><path fill="#F1DB30" d="M255.598 250.741l51.9-91.64-22-37.666-73.774 129.306z"/><path fill="#7FD1B1" d="M312.848 166.135l74.66 131.976-43.834-.011-52.826-94.299z"/><path d="M251.394 283.26c0 .909-.568 1.136-1.364 1.136-1.931.568-1.931 3.295-2.5 4.886-.795 3.863-2.386 6.249-3.522 9.544-1.363.795-.795 1.704-1.363 2.727-1.591 2.5-.228 5.454-1.932 7.386-1.363 6.589-4.886 12.271-7.044 17.951-1.704 3.067-1.931 7.157-4.09 9.885.795 1.363-1.705 1.591-.795 2.954-1.932 2.727-1.932 6.021-3.636 8.976-1.591 3.636-2.159 8.181-3.75 11.476-.341 1.704-.795 3.295-1.136 4.885-.795 1.137-.795 2.5-1.363 3.636-.455.114-1.818 1.478-2.386.455 3.749-13.066 7.839-26.7 13.066-39.198 3.295-9.544 6.249-19.429 8.976-28.631-.227-.568-.227-1.705-1.136-1.705h-1.363c-2.727 2.728-5.113 6.022-7.612 9.317-3.75 2.499-5.681 6.589-8.749 10.339-3.522 4.431-1.818 13.065-8.408 14.997-2.954.796-4.09-2.727-7.044-2.386-1.704-.909-4.09-.341-5.226-2.5.795-1.59-.568-3.295-1.591-3.295-3.863-1.931-1.363-5.112-.909-8.18l.341-.228c0-3.295 1.363-6.59.795-9.885-.227-.795-1.136-.454-1.59-.454-2.727 4.544-5.227 8.18-8.181 12.725h-.341c-4.885 8.521-9.771 16.702-14.429 25.45-1.136 0-2.727-.909-4.317-1.363-1.363.454-1.705-1.704-3.295-1.136-.568-.568-1.363-.796-.795-1.591 4.09.795 2.386-3.863 4.09-5.795 0-1.591 1.022-2.954 2.727-3.295 3.75-5.453 6.249-11.93 7.044-17.951 2.727-2.5 3.522-6.249 5.227-9.544.795-2.727 4.09-4.317 4.09-7.612 6.249-4.658 7.044-12.271 11.93-17.724.341-3.522 4.431-3.522 5.795-6.59.227-3.295 1.59-6.021 3.181-8.408.341-.795-.455-2.5.909-3.067 4.317 1.704 12.498-.228 14.657 6.362 0 1.818-.568 3.181-2.159 4.317-1.591 0-2.727-.227-4.09.795-1.931 3.068-2.727 6.59-3.522 9.543-1.704 6.022-3.068 12.612-4.658 18.861 0 2.727-1.136 4.885-1.591 7.612-.909.795-.341 2.499-.909 3.862-.795 1.818-1.591 4.886-1.023 7.271 1.932.341 2.386-2.158 4.317-2.954 12.271-13.406 24.542-27.268 36.585-41.697 1.022-1.704 2.727-2.5 4.09-.341 1.022.909 1.59 2.5.795 4.09-.795.342-2.159 1.932-1.59 3.295.225.342.794.342.794.797zM191.858 337c-.227.796 0 1.591-.909 2.159-1.477 3.182-2.272-.682-2.386-1.932 0-.795.682-1.477 1.591-1.477.795 0 1.25.682 1.818 1.249h-.114zm8.976 17.611c.341.567 3.977.227 4.999 2.613.227.567-3.863 2.84-3.863 2.386-2.272-.455-4.204-7.612-1.023-4.886l-.113-.113zM292.982 315.186a203.414 203.414 0 0 1-10.794 21.701c-.113-.228-.454-.113-.568-.228-1.25 1.25 1.136 1.591-.455 2.841-.227 2.386-1.704 4.771-2.272 7.385-1.364 4.658-3.068 9.09-4.545 13.635l-1.136-.796c-1.818.682-.568 3.863-2.613 3.863 1.136-1.25-1.59-3.067.455-3.977-.114-2.386 2.954-2.954 2.159-5.681 1.022-1.022.455-3.068 2.045-3.636-1.136-1.818 1.931-2.159 1.25-3.977l.682.113c-1.022-2.386 1.818-2.159.909-4.545 1.25-.795-.568-2.386 1.363-2.499-1.591-1.704.795-3.75.114-5.567l.568-.682c-1.136-.682.568-1.137.568-1.818-.454-.795-.227-2.045.682-2.499.113-.228-.114-.341-.228-.455-4.204 4.204-8.18 9.544-13.634 12.611-6.931 3.978-9.885 11.476-17.497 14.43-1.25.228-2.272-.454-2.954-1.363-.341-4.771 1.25-9.771 2.727-14.315 1.022-2.159 1.704-4.432 2.613-6.59 3.068-7.84 7.158-15.225 9.203-23.064 1.25-1.591 4.886-4.658 6.59-1.25.682 4.772-3.636 7.499-5.454 11.021-4.431 8.748-7.385 17.383-10.339 26.699l.455.568c6.704-1.25 11.248-7.84 17.497-10.907.682-1.363 2.5-1.25 2.727-2.954 5.113-4.204 10.68-9.657 11.703-16.588.796-.568.909.228 1.364.682 3.861-.454 3.635-6.931 8.293-5.113h.113c-.114 1.137-1.364 1.819-1.591 2.955zm-42.038 2.727c-1.136-2.5-4.544-4.772-2.954-7.499 1.818.228 2.5 2.272 3.182 3.408l-.228 4.091zm14.884 51.355c-.227.909-1.477 1.022-2.386 1.363-.455-.682-1.25-1.477-.568-2.499 1.25-.114 2.045.454 2.954 1.249v-.113zm8.407-15.566l.114 2.158 1.591-3.067c-.114-.113-1.477.909-1.705.909zm7.613-19.429c.228-.454-.909.682-1.25.341-.228.568-.455 2.5-.228 2.613l1.478-2.954zm1.136-6.589c-1.704 1.478-.795 3.977-2.045 5.681h.682c.114-1.022.455-1.817 1.25-2.499-1.136-1.363 1.135-1.137.682-2.5l-.569-.682zm2.045-2.159c.113-.568-1.137-.909-1.137-.114.455.114.455 1.25 1.023 1.137l.114-1.023zm.454-11.816h.683c.908-.454 2.727-.454 2.271-1.818-1.363-.454-2.726.455-2.954 1.818zM336.84 318.48c-3.066.228-5.793 2.728-8.18 4.545-12.611 11.93-23.746 26.813-34.086 41.016.229.909-.34 1.478-1.135 1.478-1.592-.455-2.955-1.704-3.977-3.295 6.135-17.952 16.928-33.744 26.131-50.219.91-1.022 2.727-.455 3.637.454 1.703 1.818 2.158 4.545 1.59 7.271-5.566 4.886-10.566 10.681-13.52 17.61l.227.228c7.84-6.703 15.111-18.292 25.109-22.383 2.5-1.136 4.658.796 6.363 2.046.453.341 1.25 1.136.908 1.931-1.136.796-2.044-.454-3.067-.682zm-19.654-24.2c-1.479-1.25-.682-2.954-.229-4.317.795-.795.568-2.158 1.932-2.158 1.477.795 4.318 1.249 2.955 3.749-2.274-.114-1.364 4.43-4.658 2.726zM366.494 332.683c-2.158 2.159-1.703 5.454-2.953 8.067-1.592 4.204-1.932 9.316-3.977 13.18-1.818 0-2.158-1.591-3.295-2.841-.795-7.044 3.182-12.498 4.316-18.974-.682-1.478-1.477.454-2.158-.228-3.295 4.317-7.727 6.817-11.135 10.566-1.59-.113-2.271 1.817-4.203 1.363-2.5-.682-5.34-2.045-5.682-5.112.568-2.5.568-5.795 2.727-7.386 1.25-5.112 7.045-8.18 10.566-11.361 3.41-1.363 6.477-4.772 10.566-4.999 3.637-2.272 8.408-1.022 10.908 2.045-2.043 5.227-2.385 10.908-5.68 15.68zm-23.291-15.566c-.682-.567-.795-1.477-1.705-1.817.682-2.5 3.977.454 4.545 1.817-.795.682-2.158.569-2.84 0zm7.272 37.154c-1.137.341-1.363-.909-2.271-1.363-1.705-1.023 0-.796.113-2.159 1.703-1.932 1.477-.568 2.953.228l.229 1.363-1.024 1.931zm10.908-34.2c-1.932 2.159-5.455 2.159-7.84 3.75-3.182.908-5.568 5.112-5.227 7.044.568 0 2.045 1.932 2.727 1.363 3.75-2.045 8.408-4.771 11.703-10.339.682-.909 2.498 0 2.158-1.704l-3.521-.114zM376.721 368.927c.455 1.25-.908 2.159-1.59 3.182-.908.227-1.137.795-2.387.567.797-2.386.229-4.544 1.363-6.703 1.365.341-.113 1.591.455 2.386-.455.796-.795 2.613 0 3.522l2.158-3.067v.113zm28.177-62.149c1.59.568 1.59-1.704 2.271-2.613-1.135 4.658-4.43 9.771-6.135 14.543-1.818-3.182 2.5-5.794 2.5-9.089l-.568.113c-2.727 6.362-6.816 11.589-10.34 17.497-1.703 2.158-1.93 5.453-3.977 7.158v-.796c-.34-.341-.908.341-1.021.796v.908h1.021l-1.363 2.272c-.34-.682.568-1.022 0-1.477-.795 3.408-3.635 6.931-4.658 10.68-1.816 6.249-3.521 12.611-4.885 18.86-1.023-.568-1.932-.341-2.953.228-.229-1.022-1.818-1.818-.115-2.386-.682-.568.342-.342.229-1.023 1.59-5.226 3.977-9.543 5.34-14.884l.453.909c.455-.228.342-.795.342-1.363l-.568-.113c1.137-1.818 1.932-3.522 2.387-5.908 2.385-4.091 2.727-9.09 5.453-13.18 1.25-3.749 2.387-8.181 4.203-11.93 1.705-1.704.682-4.545 2.842-6.362 4.543-11.135 10.68-22.042 16.246-32.608 2.727-1.477 3.863 4.771 5.795.454 0-1.136 1.023-1.704 1.932-1.136.113 1.363 1.818 1.136 2.385 2.158-6.023 9.545-12.157 18.635-16.816 28.292zm-24.427 74.647c-1.59.113-1.25-2.159-2.613-2.386-.113-.682-.113-1.591 1.023-1.818.795 1.137 2.498 2.727 1.59 4.317v-.113zm-.455 2.726c-.453.113-.795-.113-1.135-.454l.453-1.363c.682-.114 1.137.682 1.363.908.115.455 0 1.25-.681.909zm23.519-74.873l1.137-.568-.113-1.137-1.024 1.705zm4.319 1.249c0-.682 0-1.817.908-1.817 1.363 1.363 0 2.272-.908 1.817zm1.703-2.499c.795-2.045 2.045-6.477 2.955-5.795.226 1.932-1.705 4.091-2.955 5.795zm10.453-37.834c-1.137-.114-1.023-1.477-1.59-2.159l.227-3.522c.455 1.932 2.613 3.636 1.477 5.681h-.114z"/></svg>