<?xml version="1.0"?>
<svg xmlns="http://www.w3.org/2000/svg" viewBox="0 0 24 24" width="24px" height="24px" fill="white" stroke="white">
    <path d="M 12 4 C 12 4 5.7455469 3.9999687 4.1855469 4.4179688 C 3.3245469 4.6479688 2.6479687 5.3255469 2.4179688 6.1855469 C 1.9999687 7.7455469 2 12 2 12 C 2 12 1.9999687 16.254453 2.4179688 17.814453 C 2.6479687 18.675453 3.3255469 19.352031 4.1855469 19.582031 C 5.7455469 20.000031 12 20 12 20 C 12 20 18.254453 20.000031 19.814453 19.582031 C 20.674453 19.352031 21.352031 18.674453 21.582031 17.814453 C 22.000031 16.254453 22 12 22 12 C 22 12 22.000031 7.7455469 21.582031 6.1855469 C 21.352031 5.3255469 20.674453 4.6479688 19.814453 4.4179688 C 18.254453 3.9999687 12 4 12 4 z M 12 6 C 14.882 6 18.490875 6.1336094 19.296875 6.3496094 C 19.465875 6.3946094 19.604391 6.533125 19.650391 6.703125 C 19.891391 7.601125 20 10.342 20 12 C 20 13.658 19.891391 16.397875 19.650391 17.296875 C 19.605391 17.465875 19.466875 17.604391 19.296875 17.650391 C 18.491875 17.866391 14.882 18 12 18 C 9.119 18 5.510125 17.866391 4.703125 17.650391 C 4.534125 17.605391 4.3956094 17.466875 4.3496094 17.296875 C 4.1086094 16.398875 4 13.658 4 12 C 4 10.342 4.1086094 7.6011719 4.3496094 6.7011719 C 4.3946094 6.5331719 4.533125 6.3946094 4.703125 6.3496094 C 5.508125 6.1336094 9.118 6 12 6 z M 10 8.5351562 L 10 15.464844 L 16 12 L 10 8.5351562 z"/>
</svg>
